<svg width="528" height="750" viewBox="0 0 528 750" fill="none" xmlns="http://www.w3.org/2000/svg">
<g clip-path="url(#clip0_150_1114)">
<path d="M491.249 0H528.252V750H491.249V0Z" fill="#13D060"/>
<path d="M446.591 0H480.381V750H446.591V0Z" fill="#11CA5E"/>
<path d="M401.933 0H432.509V750H401.933V0Z" fill="#0FC55B"/>
<path d="M357.269 0H384.632V750H357.269V0Z" fill="#0EBF59"/>
<path d="M312.611 0H336.761V750H312.611V0Z" fill="#0CB956"/>
<path d="M267.959 0H288.89V750H267.959V0Z" fill="#0AB454"/>
<path d="M223.301 0H241.019V750H223.301V0Z" fill="#08AE51"/>
<path d="M178.637 0H193.142V750H178.637V0Z" fill="#07A84F"/>
<path d="M133.98 0H145.271V750H133.98V0Z" fill="#05A34C"/>
<path d="M89.3217 0H97.3995V750H89.3217V0Z" fill="#039D4A"/>
<path d="M44.6579 0H49.5225V750H44.6579V0Z" fill="#029847"/>
<path d="M-5.13792e-05 0H1.65131V750H-5.13792e-05V0Z" fill="#009245"/>
</g>
<defs>
<clipPath id="clip0_150_1114">
<rect width="624" height="750" fill="white" transform="matrix(-1 0 0 1 624 0)"/>
</clipPath>
</defs>
</svg>
