<svg width="1648" height="394" viewBox="0 0 1648 394" fill="none" xmlns="http://www.w3.org/2000/svg">
<g clip-path="url(#clip0_150_1202)">
<path d="M1181.18 0H1113.03V33.0646H1181.18V0Z" fill="#171717"/>
<path d="M1181.18 42.7188H1113.03V73.1889H1181.18V42.7188Z" fill="#171717"/>
<path d="M184.95 109.24C188.61 110.417 192.21 111.774 195.688 113.283H79.558C80.8587 112.74 82.1898 112.197 83.551 111.684C85.5475 110.9 87.5743 110.176 89.6615 109.482C102.215 105.349 115.798 102.995 130.378 102.392C132.647 102.302 134.976 102.241 137.306 102.241H137.79C151.826 102.241 164.985 103.84 177.236 107.038C179.837 107.702 182.409 108.426 184.95 109.24Z" fill="#171717"/>
<path d="M389.925 110.507H321.771V113.282H389.925V110.507Z" fill="#171717"/>
<path d="M505.087 107.943C509.232 109.391 513.255 111.171 517.127 113.283H429.28C438.87 108.124 448.52 104.775 458.26 103.237C462.435 102.573 466.609 102.241 470.814 102.241C483.126 102.241 494.56 104.142 505.087 107.943Z" fill="#171717"/>
<path d="M692.457 112.529C692.911 112.77 693.395 113.011 693.849 113.283H605.911C608.513 111.895 611.114 110.628 613.746 109.512C624.243 104.956 634.861 102.573 645.6 102.271C646.326 102.241 647.082 102.241 647.838 102.241C652.497 102.241 657.004 102.513 661.39 103.056C672.643 104.413 682.989 107.581 692.457 112.529Z" fill="#171717"/>
<path d="M973.481 108.607C977.928 109.934 982.224 111.503 986.398 113.283H870.207C873.323 111.986 876.529 110.779 879.796 109.693C886.149 107.551 892.744 105.892 899.641 104.655C908.232 103.146 917.216 102.332 926.624 102.271C927.229 102.241 927.864 102.241 928.499 102.241C934.943 102.241 941.204 102.573 947.285 103.237C956.45 104.263 965.193 106.042 973.481 108.607Z" fill="#171717"/>
<path d="M1181.18 85.4375H1113.03V113.283H1181.18V85.4375Z" fill="#171717"/>
<path d="M1290.59 110.507H1374.84L1372.42 113.282H1288.23L1290.59 110.507Z" fill="#171717"/>
<path d="M1582.57 113.283H1468.59C1469.49 112.891 1470.43 112.529 1471.37 112.167C1476.94 110.085 1482.71 108.365 1488.7 107.008C1498.23 104.805 1508.33 103.538 1519.01 103.176C1521.16 103.086 1523.34 103.056 1525.55 103.056C1528.94 103.056 1532.26 103.146 1535.53 103.327C1546.57 103.9 1556.95 105.469 1566.66 108.003C1572.1 109.421 1577.34 111.141 1582.36 113.192C1582.42 113.222 1582.51 113.253 1582.57 113.283Z" fill="#171717"/>
<path d="M232.594 137.507C237.676 142.365 242.365 147.644 246.63 153.376H28.3444C30.9762 149.877 33.7592 146.528 36.6935 143.39C38.3875 141.49 40.1722 139.68 42.0175 137.96C45.6475 134.46 49.5196 131.202 53.6033 128.155H221.492C222.369 128.789 223.216 129.453 224.063 130.116C227.028 132.439 229.871 134.913 232.594 137.507Z" fill="#171717"/>
<path d="M554.577 153.376H321.771V128.155H389.925V150.299C395.34 141.852 401.45 134.491 408.317 128.155H537.243C542.961 133.887 547.831 140.555 551.915 148.127C552.852 149.816 553.73 151.566 554.577 153.376Z" fill="#171717"/>
<path d="M716.566 130.81C722.798 137.357 727.94 144.899 731.994 153.376H564.529C565.013 152.471 565.557 151.566 566.102 150.691C571.396 142.093 577.597 134.581 584.706 128.155H713.935C714.842 129 715.689 129.905 716.566 130.81Z" fill="#171717"/>
<path d="M1037.31 153.376H819.084C823.289 147.704 827.917 142.485 832.969 137.719C836.569 134.279 840.35 131.082 844.374 128.155H1012.2C1015.01 130.237 1017.71 132.439 1020.31 134.762C1026.57 140.313 1032.26 146.528 1037.31 153.376Z" fill="#171717"/>
<path d="M1181.18 128.155H1113.03V153.376H1181.18V128.155Z" fill="#171717"/>
<path d="M1275.59 128.155H1359.47L1348.19 141.098L1337.48 153.376H1254.17L1254.51 152.984L1275.59 128.155Z" fill="#171717"/>
<path d="M1632.21 153.376H1418.28C1419.22 151.898 1420.22 150.48 1421.24 149.062C1422.06 147.976 1422.88 146.89 1423.73 145.834C1428.96 139.287 1434.98 133.435 1441.85 128.276C1441.91 128.246 1441.97 128.185 1442.03 128.155H1608.83C1610.7 129.603 1612.55 131.112 1614.3 132.65C1619.87 137.568 1624.86 142.998 1629.21 149.002C1630.24 150.42 1631.24 151.898 1632.21 153.376Z" fill="#171717"/>
<path d="M17.3031 170.874H101.368C97.1031 173.619 93.2008 176.968 89.6616 180.89C88.8146 181.795 88.0281 182.76 87.2415 183.726C85.9408 185.355 84.7005 187.044 83.551 188.824C82.5528 190.333 81.615 191.871 80.7378 193.5H7.77429C10.2851 185.687 13.4008 178.235 17.1519 171.176C17.2124 171.085 17.2729 170.965 17.3031 170.874Z" fill="#171717"/>
<path d="M267.079 193.5H194.206C192.3 190.001 190.183 186.743 187.793 183.726C186.886 182.549 185.948 181.433 184.95 180.377C182.56 177.722 179.989 175.339 177.236 173.257C176.147 172.413 175.028 171.628 173.878 170.874H257.58C257.58 170.874 257.701 171.085 257.762 171.176C261.483 178.235 264.568 185.687 267.079 193.5Z" fill="#171717"/>
<path d="M321.771 170.874H418.148C415.819 172.171 413.55 173.71 411.403 175.46C409.436 177.028 407.531 178.778 405.715 180.709C402.025 184.601 398.97 188.854 396.61 193.5H321.771V170.874Z" fill="#171717"/>
<path d="M473.476 170.874H595.172C590.665 173.378 586.491 176.666 582.619 180.709C578.868 184.601 575.812 188.854 573.392 193.5H493.32C491.021 187.829 487.996 183.062 484.245 179.17C481.038 175.852 477.439 173.076 473.476 170.874Z" fill="#171717"/>
<path d="M742.733 193.5H670.586C668.257 187.829 665.202 183.062 661.42 179.17C658.214 175.852 654.614 173.076 650.621 170.874H738.528C738.8 171.87 739.073 172.865 739.315 173.891C740.888 180.045 742.037 186.592 742.763 193.5H742.733Z" fill="#171717"/>
<path d="M808.013 170.874H892.048C887.541 173.77 883.457 177.33 879.796 181.554C879.161 182.248 878.556 182.972 877.951 183.726C875.531 186.743 873.353 190.001 871.447 193.5H798.484C800.148 188.281 802.084 183.243 804.322 178.356C805.411 175.912 806.591 173.529 807.831 171.176C807.892 171.085 807.952 170.965 808.013 170.874Z" fill="#171717"/>
<path d="M1048.47 171.176C1052.16 178.235 1055.28 185.687 1057.76 193.5H984.886C983.01 190.001 980.862 186.743 978.503 183.726C976.9 181.705 975.236 179.834 973.481 178.114C970.729 175.369 967.764 172.956 964.588 170.874H1048.32C1048.32 170.874 1048.41 171.085 1048.47 171.176Z" fill="#171717"/>
<path d="M1181.18 170.874H1113.03V193.5H1181.18V170.874Z" fill="#171717"/>
<path d="M1239.29 170.874H1322.24L1302.51 193.5H1220.08L1233.15 178.114L1239.29 170.874Z" fill="#171717"/>
<path d="M1409.42 170.874H1483.44C1478.9 176.878 1475.79 184.42 1474.09 193.5H1403.94C1404.91 185.536 1406.72 177.994 1409.42 170.874Z" fill="#171717"/>
<path d="M1646.88 193.5H1579.24C1577.94 184.812 1574.58 177.27 1569.17 170.874H1641.1C1643.89 178.024 1645.79 185.566 1646.88 193.5Z" fill="#171717"/>
<path d="M2.75294 213.593H72.9334C71.3604 219.777 70.2714 226.445 69.6664 233.594H0.302673C0.756426 226.686 1.57318 220.019 2.75294 213.593Z" fill="#171717"/>
<path d="M274.46 233.594H205.096C204.522 226.414 203.433 219.747 201.859 213.593H272.04C273.22 220.049 274.036 226.716 274.46 233.594Z" fill="#171717"/>
<path d="M321.771 213.593H390.5C390.137 216.7 389.925 219.898 389.925 223.247V233.594H321.771V213.593Z" fill="#171717"/>
<path d="M498.1 213.593H567.282C566.889 216.7 566.677 219.898 566.677 223.247V233.594H498.795V227.108C498.795 222.311 498.553 217.816 498.1 213.593Z" fill="#171717"/>
<path d="M743.701 213.593V233.594H676.122V227.108C676.122 222.311 675.88 217.816 675.396 213.593H743.701Z" fill="#171717"/>
<path d="M793.462 213.593H863.673C862.07 219.747 860.981 226.414 860.376 233.594H790.982C791.466 226.716 792.283 220.049 793.462 213.593Z" fill="#171717"/>
<path d="M1062.75 213.593C1063.9 220.019 1064.72 226.686 1065.17 233.594H995.776C995.594 230.909 995.292 228.315 994.929 225.781C994.324 221.527 993.567 217.454 992.599 213.593H1062.75Z" fill="#171717"/>
<path d="M1181.18 213.593H1113.03V233.594H1181.18V213.593Z" fill="#171717"/>
<path d="M1202.99 213.593H1285L1280.79 218.42L1267.57 233.594H1185.99L1202.99 213.593Z" fill="#171717"/>
<path d="M1648 213.593V233.594H1452.37C1458.27 231.513 1464.59 229.823 1471.37 228.496C1476.84 227.44 1482.62 226.595 1488.7 225.992C1490.79 225.781 1492.91 225.6 1495.06 225.449L1519.01 223.669L1535.53 222.432L1565.18 220.2C1565.69 220.2 1566.17 220.139 1566.66 220.079C1572.62 219.476 1576.55 217.334 1578.49 213.593H1648Z" fill="#171717"/>
<path d="M69.3032 256.312C69.6057 262.466 70.2409 268.258 71.1787 273.689H1.48226C0.726005 268.047 0.242002 262.255 0 256.312H69.3032Z" fill="#171717"/>
<path d="M274.762 256.312C274.52 262.255 274.036 268.047 273.31 273.689H203.584C204.552 268.228 205.157 262.436 205.459 256.312H274.762Z" fill="#171717"/>
<path d="M389.925 256.312H321.771V273.689H389.925V256.312Z" fill="#171717"/>
<path d="M566.677 256.312H498.795V273.689H566.677V256.312Z" fill="#171717"/>
<path d="M743.701 256.312H676.122V273.689H743.701V256.312Z" fill="#171717"/>
<path d="M860.013 256.312C860.315 262.436 860.951 268.228 861.919 273.689H792.192C791.436 268.047 790.952 262.255 790.71 256.312H860.013Z" fill="#171717"/>
<path d="M996.139 256.312H1065.47C1065.23 262.255 1064.75 268.047 1063.99 273.689H994.293C994.535 272.361 994.747 271.004 994.929 269.616C995.534 265.362 995.927 260.927 996.139 256.312Z" fill="#171717"/>
<path d="M1280.79 266.75L1286.33 273.689H1113.03V256.312H1272.47L1280.79 266.75Z" fill="#171717"/>
<path d="M1648 256.312V273.689H1404.64C1407.54 267.293 1411.35 261.5 1416.13 256.312H1648Z" fill="#171717"/>
<path d="M87.2416 312.213C87.6651 312.756 88.1188 313.299 88.5423 313.812H12.1606C10.1338 309.045 8.37933 304.128 6.86682 299.029H79.0438C80.405 301.865 81.8873 304.52 83.5511 307.054C84.7006 308.834 85.9408 310.554 87.2416 312.213Z" fill="#171717"/>
<path d="M267.956 299.029C266.474 304.128 264.719 309.045 262.693 313.812H186.523C186.946 313.269 187.37 312.756 187.793 312.213C190.879 308.261 193.571 303.856 195.87 299.029H267.956Z" fill="#171717"/>
<path d="M389.925 299.029H321.771V313.812H389.925V299.029Z" fill="#171717"/>
<path d="M566.677 299.029H498.795V313.812H566.677V299.029Z" fill="#171717"/>
<path d="M743.701 299.029H676.122V313.812H743.701V299.029Z" fill="#171717"/>
<path d="M877.951 312.213C878.375 312.756 878.829 313.299 879.282 313.812H802.87C800.843 309.045 799.059 304.128 797.576 299.029H869.753C872.083 303.856 874.805 308.261 877.951 312.213Z" fill="#171717"/>
<path d="M986.549 299.029H1058.67C1057.18 304.128 1055.43 309.045 1053.4 313.812H977.172C977.626 313.299 978.079 312.756 978.503 312.213C981.588 308.231 984.281 303.856 986.549 299.029Z" fill="#171717"/>
<path d="M1113.03 299.029H1195.03L1185.5 310.554L1182.81 313.812H1113.03V299.029Z" fill="#171717"/>
<path d="M1306.54 299.029L1318.3 313.812H1237.81L1233.15 307.959L1226.04 299.029H1306.54Z" fill="#171717"/>
<path d="M1466.26 304.49C1466.26 307.808 1466.62 310.916 1467.41 313.812H1397.68C1397.59 312.273 1397.56 310.735 1397.56 309.166C1397.56 305.666 1397.71 302.287 1398.04 299.029H1466.62C1466.38 300.779 1466.26 302.589 1466.26 304.49Z" fill="#171717"/>
<path d="M1648 299.029V313.812H1569.38C1572.43 309.287 1574.82 304.369 1576.55 299.029H1648Z" fill="#171717"/>
<path d="M27.9512 341.718H246.993C243.877 346.032 240.489 350.105 236.859 353.906H38.1757C37.6615 353.393 37.1775 352.88 36.6935 352.337C33.608 348.988 30.7039 345.459 27.9512 341.718Z" fill="#171717"/>
<path d="M389.925 341.718H321.771V353.906H389.925V341.718Z" fill="#171717"/>
<path d="M566.677 341.718H498.795V353.906H566.677V341.718Z" fill="#171717"/>
<path d="M743.701 341.718H676.122V353.906H743.701V341.718Z" fill="#171717"/>
<path d="M818.691 341.718H1037.7C1034.59 346.032 1031.2 350.074 1027.57 353.906H828.886C825.255 350.105 821.837 346.032 818.691 341.718Z" fill="#171717"/>
<path d="M1181.18 341.718H1113.03V353.906H1181.18V341.718Z" fill="#171717"/>
<path d="M1348.19 351.281L1350.28 353.906H1269.69L1260.01 341.718H1340.57L1348.19 351.281Z" fill="#171717"/>
<path d="M1648 341.718V353.906H1410.38C1410.11 353.514 1409.87 353.091 1409.6 352.699C1407.36 349.2 1405.42 345.519 1403.82 341.718H1648Z" fill="#171717"/>
<path d="M83.6418 384.437H191.726C189.487 385.311 187.249 386.126 184.95 386.88C182.409 387.695 179.837 388.479 177.236 389.143C164.985 392.371 151.826 394 137.79 394H137.306C134.976 394 132.647 393.94 130.378 393.819C115.798 393.246 102.215 390.832 89.6616 386.639C87.6046 385.945 85.608 385.251 83.6418 384.437Z" fill="#171717"/>
<path d="M389.925 384.437H321.771V386.82H389.925V384.437Z" fill="#171717"/>
<path d="M566.677 384.437H498.795V386.82H566.677V384.437Z" fill="#171717"/>
<path d="M743.701 384.437H676.122V386.82H743.701V384.437Z" fill="#171717"/>
<path d="M874.352 384.437H982.254C979.38 385.583 976.476 386.609 973.481 387.544C965.193 390.138 956.45 391.948 947.285 392.974C941.204 393.668 934.943 394 928.499 394C927.864 394 927.229 394 926.624 393.97C917.216 393.879 908.232 393.065 899.641 391.526C892.744 390.289 886.149 388.6 879.796 386.428C877.951 385.794 876.136 385.161 874.352 384.437Z" fill="#171717"/>
<path d="M1181.18 384.437H1113.03V386.82H1181.18V384.437Z" fill="#171717"/>
<path d="M1376.08 386.277L1376.5 386.82H1295.89L1293.98 384.437H1374.63L1376.08 386.277Z" fill="#171717"/>
<path d="M1446.62 384.437H1538.86C1537.77 384.919 1536.65 385.372 1535.53 385.794C1530.27 387.846 1524.76 389.445 1519.01 390.651C1510.24 392.522 1500.86 393.457 1490.91 393.457C1490.15 393.457 1489.43 393.457 1488.7 393.457C1482.68 393.366 1476.91 392.854 1471.37 391.948C1462.54 390.47 1454.31 387.996 1446.62 384.467V384.437Z" fill="#171717"/>
<path d="M1648 384.437H1579.85V386.82H1648V384.437Z" fill="#171717"/>
</g>
<defs>
<clipPath id="clip0_150_1202">
<rect width="1648" height="394" fill="white"/>
</clipPath>
</defs>
</svg>
