<svg width="1204" height="120" viewBox="0 0 1204 120" preserveAspectRatio="none" fill="none" xmlns="http://www.w3.org/2000/svg">
<g clip-path="url(#clip0_150_463)">
<path d="M601.993 -60V180" stroke="#333333" stroke-width="0.5" stroke-miterlimit="10"/>
<path d="M710.678 -60V180" stroke="#333333" stroke-miterlimit="10"/>
<path d="M801.252 -60V180" stroke="#333333" stroke-miterlimit="10"/>
<path d="M876.727 -60V180" stroke="#333333" stroke-miterlimit="10"/>
<path d="M939.621 -60V180" stroke="#333333" stroke-miterlimit="10"/>
<path d="M992.035 -60V180" stroke="#333333" stroke-miterlimit="10"/>
<path d="M1035.71 -60V180" stroke="#333333" stroke-miterlimit="10"/>
<path d="M1072.1 -60V180" stroke="#333333" stroke-miterlimit="10"/>
<path d="M1102.43 -60V180" stroke="#333333" stroke-miterlimit="10"/>
<path d="M1127.71 -60V180" stroke="#333333" stroke-miterlimit="10"/>
<path d="M1148.78 -60V180" stroke="#333333" stroke-miterlimit="10"/>
<path d="M1166.32 -60V180" stroke="#333333" stroke-miterlimit="10"/>
<path d="M1180.95 -60V180" stroke="#333333" stroke-miterlimit="10"/>
<path d="M1193.15 -60V180" stroke="#333333" stroke-miterlimit="10"/>
<path d="M1203.31 -60V180" stroke="#333333" stroke-miterlimit="10"/>
<path d="M601.993 -60V180" stroke="#333333" stroke-width="0.5" stroke-miterlimit="10"/>
<path d="M493.322 -60V180" stroke="#333333" stroke-miterlimit="10"/>
<path d="M402.748 -60V180" stroke="#333333" stroke-miterlimit="10"/>
<path d="M327.273 -60V180" stroke="#333333" stroke-miterlimit="10"/>
<path d="M264.379 -60V180" stroke="#333333" stroke-miterlimit="10"/>
<path d="M211.965 -60V180" stroke="#333333" stroke-miterlimit="10"/>
<path d="M168.289 -60V180" stroke="#333333" stroke-miterlimit="10"/>
<path d="M131.885 -60V180" stroke="#333333" stroke-miterlimit="10"/>
<path d="M101.565 -60V180" stroke="#333333" stroke-miterlimit="10"/>
<path d="M76.2775 -60V180" stroke="#333333" stroke-miterlimit="10"/>
<path d="M55.2206 -60V180" stroke="#333333" stroke-miterlimit="10"/>
<path d="M37.6617 -60V180" stroke="#333333" stroke-miterlimit="10"/>
<path d="M23.0339 -60V180" stroke="#333333" stroke-miterlimit="10"/>
<path d="M10.8533 -60V180" stroke="#333333" stroke-miterlimit="10"/>
<path d="M0.691162 -60V180" stroke="#333333" stroke-miterlimit="10"/>
</g>
<defs>
<clipPath id="clip0_150_463">
<rect width="1204" height="120" fill="white"/>
</clipPath>
</defs>
</svg>
