<svg width="32" height="32" viewBox="0 0 32 32" fill="none" xmlns="http://www.w3.org/2000/svg">
<mask id="mask0_113_366" style="mask-type:luminance" maskUnits="userSpaceOnUse" x="0" y="0" width="32" height="32">
<path d="M31.1447 0H0V31.1785H31.1447V0Z" fill="white"/>
</mask>
<g mask="url(#mask0_113_366)">
<path d="M6.77396 29.8783C10.5152 29.8783 13.5479 26.8686 13.5479 23.1545C13.5479 19.4413 10.5152 16.4307 6.77396 16.4307C3.03271 16.4307 0 19.4413 0 23.1545C0 26.8686 3.03271 29.8783 6.77396 29.8783Z" fill="#666666"/>
<path d="M15.5722 14.7474C19.3134 14.7474 22.3462 11.7368 22.3462 8.02361C22.3462 4.30948 19.3134 1.29883 15.5722 1.29883C11.8309 1.29883 8.79822 4.30948 8.79822 8.02361C8.79822 11.7368 11.8309 14.7474 15.5722 14.7474Z" fill="#666666"/>
<path d="M24.3706 29.8783C28.1119 29.8783 31.1446 26.8686 31.1446 23.1545C31.1446 19.4413 28.1119 16.4307 24.3706 16.4307C20.6294 16.4307 17.5967 19.4413 17.5967 23.1545C17.5967 26.8686 20.6294 29.8783 24.3706 29.8783Z" fill="#666666"/>
</g>
</svg>
