<svg width="30" height="29" viewBox="0 0 30 29" fill="none" xmlns="http://www.w3.org/2000/svg">
<path fill-rule="evenodd" clip-rule="evenodd" d="M14.6934 0C6.57929 0 0 6.58519 0 14.7094C0 21.2083 4.21034 26.722 10.048 28.6677C10.7819 28.8041 11.0515 28.3481 11.0515 27.9594C11.0515 27.6086 11.0379 26.4502 11.032 25.2215C6.94428 26.1111 6.08196 23.4853 6.08196 23.4853C5.41332 21.7851 4.44978 21.333 4.44978 21.333C3.1164 20.42 4.55101 20.4395 4.55101 20.4395C6.02551 20.5428 6.80315 21.9556 6.80315 21.9556C8.11317 24.2034 10.2407 23.5535 11.0787 23.1784C11.2111 22.2274 11.5916 21.5785 12.0121 21.2112C8.74774 20.839 5.31696 19.5782 5.31696 13.9416C5.31696 12.3357 5.89119 11.0235 6.83137 9.99319C6.67856 9.62294 6.17538 8.12686 6.97346 6.10075C6.97346 6.10075 8.2066 5.70537 11.0145 7.60852C12.1873 7.28231 13.4447 7.11844 14.6934 7.11279C15.9412 7.11844 17.1996 7.28182 18.3744 7.60803C21.1784 5.70488 22.4105 6.10026 22.4105 6.10026C23.2105 8.12609 22.7074 9.62245 22.5546 9.9927C23.4967 11.023 24.067 12.3352 24.067 13.9412C24.067 19.5909 20.6294 20.8341 17.3583 21.1985C17.8848 21.6555 18.3549 22.5509 18.3549 23.9228C18.3549 25.8909 18.3374 27.4752 18.3374 27.9594C18.3374 28.3511 18.6021 28.81 19.3467 28.6648C25.1814 26.7181 29.3869 21.2063 29.3869 14.7094C29.3869 6.58567 22.8076 0 14.6934 0Z" fill="#666666"/>
</svg>
