<svg width="32" height="32" viewBox="0 0 32 32" fill="none" xmlns="http://www.w3.org/2000/svg">
<mask id="mask0_113_376" style="mask-type:luminance" maskUnits="userSpaceOnUse" x="0" y="0" width="32" height="32">
<path d="M31.1447 0H0V31.1785H31.1447V0Z" fill="white"/>
</mask>
<g mask="url(#mask0_113_376)">
<path d="M28.3146 3.33984H14.9233C14.9233 4.94456 15.5608 6.484 16.6947 7.61909C17.8276 8.7532 19.3653 9.39139 20.9683 9.39139H23.4356V11.7756C23.4375 15.1146 26.1413 17.8213 29.4767 17.8232V4.50221C29.4767 3.86013 28.9569 3.33984 28.3146 3.33984Z" fill="#666666"/>
<path d="M21.6893 10.0195H8.2981C8.30004 13.3586 11.0038 16.0643 14.3392 16.0672H16.8055V18.4592C16.8103 21.7982 19.515 24.5029 22.8504 24.5029V11.1819C22.8504 10.5398 22.3307 10.0195 21.6893 10.0195Z" fill="#666666"/>
<path d="M15.0594 16.6948H1.66821C1.66821 20.0368 4.37488 22.7464 7.71319 22.7464H10.1873V25.1305C10.1902 28.4666 12.8881 31.1723 16.2205 31.1782V17.8582C16.2205 17.2161 15.7008 16.6948 15.0594 16.6948Z" fill="#666666"/>
</g>
</svg>
