<svg width="32" height="32" viewBox="0 0 32 32" fill="none" xmlns="http://www.w3.org/2000/svg">
<path d="M0.381619 19.1819C0.312322 18.8862 0.664255 18.6999 0.878861 18.9146L12.2505 30.2987C12.4651 30.5135 12.279 30.8658 11.9836 30.7964C6.24499 29.4487 1.72785 24.9267 0.381619 19.1819ZM0.00058129 14.6193C-0.00486902 14.7077 0.0282231 14.7939 0.0908044 14.8564L16.3043 31.0876C16.3668 31.1501 16.4529 31.1834 16.5412 31.1779C17.2791 31.1318 18.0031 31.0345 18.7097 30.8892C18.9477 30.8403 19.0305 30.5474 18.8586 30.3753L0.802264 12.2994C0.630385 12.1274 0.337822 12.2102 0.288964 12.4485C0.143849 13.1559 0.0465197 13.8807 0.00058129 14.6193ZM1.31148 9.26166C1.2596 9.37819 1.28608 9.5144 1.3761 9.60463L21.5504 29.8008C21.6406 29.891 21.7766 29.9175 21.893 29.8656C22.4493 29.6175 22.9884 29.3378 23.508 29.0287C23.68 28.9265 23.7065 28.6899 23.5651 28.5484L2.62725 7.58777C2.48583 7.4462 2.24952 7.4728 2.14742 7.64496C1.8387 8.16516 1.55927 8.70483 1.31148 9.26166ZM3.94252 5.63522C3.82729 5.51976 3.82008 5.33473 3.9287 5.21304C6.78311 2.01393 10.9353 0 15.5573 0C24.166 0 31.1447 6.98622 31.1447 15.6042C31.1447 20.2312 29.1329 24.388 25.9373 27.2455C25.8157 27.3542 25.6309 27.347 25.5156 27.2317L3.94252 5.63522Z" fill="#4D4D4D"/>
</svg>
