<svg width="539" height="236" viewBox="0 0 539 236" fill="none" xmlns="http://www.w3.org/2000/svg">
<g clip-path="url(#clip0_150_503)">
<mask id="mask0_150_503" style="mask-type:luminance" maskUnits="userSpaceOnUse" x="44" y="4" width="502" height="244">
<path d="M545.466 4.02588H44.6243V247.453H545.466V4.02588Z" fill="white"/>
</mask>
<g mask="url(#mask0_150_503)">
<path d="M545.466 4.02588H44.6243V247.453H545.466V4.02588Z" fill="#1A1A1A"/>
<path d="M544.814 4.62158H45.2765V246.858H544.814V4.62158Z" stroke="#4D4D4D" stroke-miterlimit="10"/>
<path d="M45.2765 198.401H544.814" stroke="#4D4D4D" stroke-miterlimit="10"/>
<path d="M45.2765 149.955H544.814" stroke="#4D4D4D" stroke-miterlimit="10"/>
<path d="M45.2765 101.511H544.814" stroke="#4D4D4D" stroke-miterlimit="10"/>
<path d="M45.2765 53.0659H544.814" stroke="#4D4D4D" stroke-miterlimit="10"/>
<path d="M482.379 4.62158V246.858" stroke="#4D4D4D" stroke-miterlimit="10"/>
<path d="M419.93 4.62158V246.858" stroke="#4D4D4D" stroke-miterlimit="10"/>
<path d="M357.495 4.62158V246.858" stroke="#4D4D4D" stroke-miterlimit="10"/>
<path d="M295.045 4.62158V246.858" stroke="#4D4D4D" stroke-miterlimit="10"/>
<path d="M232.61 4.62158V246.858" stroke="#4D4D4D" stroke-miterlimit="10"/>
<path d="M170.16 4.62158V246.858" stroke="#4D4D4D" stroke-miterlimit="10"/>
<path d="M107.725 4.62158V246.858" stroke="#4D4D4D" stroke-miterlimit="10"/>
<path d="M107.895 150.504L39.4063 221.956V256.491H565.139V11.1709L482.953 23.675L420.334 70.7147L357.671 79.3303L295.097 216.002L232.526 160.03L169.861 199.33L107.895 150.504Z" fill="url(#paint0_linear_150_503)" fill-opacity="0.66" stroke="#16DB65"/>
<path d="M223.168 58.6958C223.168 57.837 223.329 57.0875 223.652 56.4475C223.98 55.8075 224.437 55.3097 225.023 54.9541C225.614 54.5986 226.301 54.4208 227.084 54.4208C227.856 54.4208 228.532 54.5986 229.112 54.9541C229.698 55.3097 230.152 55.8075 230.475 56.4475C230.803 57.0875 230.968 57.837 230.968 58.6958C230.968 59.5546 230.803 60.3095 230.475 60.9605C230.152 61.606 229.698 62.1092 229.112 62.4703C228.532 62.8258 227.856 63.0036 227.084 63.0036C226.301 63.0036 225.614 62.8258 225.023 62.4703C224.437 62.1092 223.98 61.606 223.652 60.9605C223.329 60.3095 223.168 59.5546 223.168 58.6958ZM229.531 58.6958C229.531 57.744 229.315 57.0055 228.882 56.4803C228.455 55.9552 227.856 55.6926 227.084 55.6926C226.296 55.6926 225.685 55.9552 225.253 56.4803C224.821 57.0055 224.604 57.744 224.604 58.6958C224.604 59.6586 224.821 60.4053 225.253 60.9359C225.685 61.4665 226.296 61.7318 227.084 61.7318C227.856 61.7318 228.455 61.4665 228.882 60.9359C229.315 60.4053 229.531 59.6586 229.531 58.6958ZM237.803 57.9163C237.803 57.1504 237.628 56.5952 237.277 56.2506C236.933 55.906 236.465 55.7336 235.873 55.7336C235.31 55.7336 234.833 55.9278 234.445 56.3162C234.062 56.6991 233.87 57.1942 233.87 57.8014V62.8313H232.458V54.6259H233.87V55.8321C234.16 55.3835 234.527 55.0362 234.97 54.79C235.419 54.5439 235.873 54.4208 236.333 54.4208C236.946 54.4208 237.485 54.5739 237.951 54.8803C238.416 55.1866 238.755 55.6324 238.969 56.2178C239.231 55.6434 239.615 55.2003 240.118 54.8885C240.622 54.5767 241.136 54.4208 241.662 54.4208C242.488 54.4208 243.173 54.6943 243.714 55.2413C244.256 55.7883 244.527 56.5788 244.527 57.6127V62.8313H243.14V57.9163C243.14 57.1504 242.965 56.5952 242.614 56.2506C242.264 55.906 241.796 55.7336 241.21 55.7336C240.641 55.7336 240.162 55.9278 239.773 56.3162C239.385 56.6991 239.19 57.1942 239.19 57.8014V62.8313H237.803V57.9163ZM246.019 58.6958C246.019 57.837 246.18 57.0875 246.503 56.4475C246.832 55.8075 247.289 55.3097 247.874 54.9541C248.466 54.5986 249.153 54.4208 249.935 54.4208C250.707 54.4208 251.383 54.5986 251.963 54.9541C252.549 55.3097 253.003 55.8075 253.326 56.4475C253.655 57.0875 253.819 57.837 253.819 58.6958C253.819 59.5546 253.655 60.3095 253.326 60.9605C253.003 61.606 252.549 62.1092 251.963 62.4703C251.383 62.8258 250.707 63.0036 249.935 63.0036C249.153 63.0036 248.466 62.8258 247.874 62.4703C247.289 62.1092 246.832 61.606 246.503 60.9605C246.18 60.3095 246.019 59.5546 246.019 58.6958ZM252.382 58.6958C252.382 57.744 252.166 57.0055 251.733 56.4803C251.306 55.9552 250.707 55.6926 249.935 55.6926C249.147 55.6926 248.537 55.9552 248.104 56.4803C247.672 57.0055 247.456 57.744 247.456 58.6958C247.456 59.6586 247.672 60.4053 248.104 60.9359C248.537 61.4665 249.147 61.7318 249.935 61.7318C250.707 61.7318 251.306 61.4665 251.733 60.9359C252.166 60.4053 252.382 59.6586 252.382 58.6958ZM260.449 54.6259H262.206L258.684 58.6137L262.296 62.8313H260.588L257.665 59.4753L256.729 60.5666V62.8313H255.317V51.3438H256.729V58.9091L260.449 54.6259ZM269.589 57.5388V62.8313H268.176V61.5513C267.585 62.525 266.652 63.0118 265.377 63.0118C264.835 63.0118 264.353 62.9079 263.931 62.7C263.515 62.4922 263.19 62.2077 262.954 61.8467C262.719 61.4802 262.601 61.059 262.601 60.583C262.601 59.8993 262.831 59.355 263.291 58.9502C263.751 58.5454 264.399 58.3101 265.237 58.2445L267.758 58.0394C268.037 58.023 268.176 57.8889 268.176 57.6373V57.4157C268.176 56.8578 267.996 56.412 267.634 56.0783C267.279 55.7446 266.791 55.5777 266.173 55.5777C265.018 55.5777 264.378 56.1494 264.252 57.2927H262.798C262.837 56.7238 263.004 56.226 263.299 55.7993C263.6 55.3726 264 55.0389 264.498 54.7982C264.996 54.5575 265.563 54.4372 266.198 54.4372C266.865 54.4372 267.454 54.5685 267.963 54.831C268.472 55.0936 268.869 55.4574 269.153 55.9224C269.443 56.3873 269.589 56.9262 269.589 57.5388ZM264.022 60.4928C264.022 60.9085 264.175 61.2367 264.482 61.4774C264.794 61.7181 265.215 61.8385 265.746 61.8385C266.474 61.8385 267.06 61.6142 267.503 61.1656C267.952 60.7116 268.176 60.1181 268.176 59.385V59.1061L265.475 59.2866C264.506 59.3577 264.022 59.7598 264.022 60.4928ZM280.233 57.9163C280.233 57.1504 280.042 56.5952 279.659 56.2506C279.281 55.906 278.772 55.7336 278.132 55.7336C277.519 55.7336 277.004 55.9278 276.588 56.3162C276.172 56.6991 275.964 57.1942 275.964 57.8014V62.8313H274.552V51.3438H275.964V55.8813C276.265 55.4164 276.654 55.0581 277.13 54.8064C277.606 54.5493 278.091 54.4208 278.583 54.4208C279.464 54.4208 280.19 54.6943 280.759 55.2413C281.334 55.7883 281.621 56.5788 281.621 57.6127V62.8313H280.233V57.9163ZM283.226 51.951H284.811V53.5346H283.226V51.951ZM283.308 54.6259H284.721V62.8313H283.308V54.6259ZM286.404 54.6259H287.816V55.9306C288.09 55.482 288.434 55.1374 288.85 54.8967C289.272 54.656 289.699 54.5357 290.131 54.5357H290.501V55.9962H290.107C289.439 55.9962 288.889 56.1795 288.456 56.546C288.029 56.9125 287.816 57.3857 287.816 57.9655V62.8313H286.404V54.6259ZM290.969 58.7368C290.969 57.8561 291.13 57.093 291.453 56.4475C291.776 55.802 292.233 55.3042 292.824 54.9541C293.415 54.5986 294.108 54.4208 294.902 54.4208C295.651 54.4208 296.317 54.5986 296.897 54.9541C297.477 55.3097 297.931 55.802 298.26 56.4311C298.594 57.0602 298.761 57.785 298.761 58.6055V59.1061H292.397C292.458 59.9868 292.707 60.6569 293.145 61.1164C293.588 61.5704 294.204 61.7974 294.992 61.7974C295.621 61.7974 296.125 61.6579 296.503 61.379C296.88 61.0945 297.121 60.7171 297.225 60.2466H298.662C298.487 61.1164 298.093 61.7947 297.48 62.2816C296.867 62.7629 296.043 63.0036 295.008 63.0036C293.766 63.0036 292.781 62.6207 292.053 61.8549C291.33 61.089 290.969 60.0497 290.969 58.7368ZM294.869 55.627C293.407 55.627 292.589 56.4284 292.414 58.0312H297.266C297.201 57.2981 296.949 56.7156 296.511 56.2834C296.078 55.8458 295.531 55.627 294.869 55.627ZM307.837 51.3438V62.8313H306.45V61.2887C306.16 61.8248 305.774 62.246 305.292 62.5523C304.816 62.8532 304.268 63.0036 303.65 63.0036C302.938 63.0036 302.314 62.8258 301.778 62.4703C301.247 62.1092 300.831 61.606 300.53 60.9605C300.234 60.3095 300.087 59.5546 300.087 58.6958C300.087 57.837 300.234 57.0875 300.53 56.4475C300.831 55.8075 301.247 55.3097 301.778 54.9541C302.314 54.5986 302.938 54.4208 303.65 54.4208C304.268 54.4208 304.816 54.5712 305.292 54.8721C305.774 55.1675 306.16 55.5832 306.45 56.1193V51.3438H307.837ZM301.523 58.6958C301.523 59.6586 301.74 60.4053 302.172 60.9359C302.604 61.4665 303.209 61.7318 303.987 61.7318C304.769 61.7318 305.374 61.4665 305.801 60.9359C306.233 60.4053 306.45 59.6586 306.45 58.6958C306.45 57.744 306.233 57.0055 305.801 56.4803C305.374 55.9552 304.769 55.6926 303.987 55.6926C303.209 55.6926 302.604 55.9552 302.172 56.4803C301.74 57.0055 301.523 57.744 301.523 58.6958Z" fill="#CCCCCC"/>
<path d="M355.031 78.4489C354.593 79.8945 355.41 81.4217 356.857 81.8597C358.303 82.2977 359.832 81.481 360.27 80.0354C360.708 78.5897 359.891 77.0626 358.444 76.6245C356.998 76.1865 355.469 77.0032 355.031 78.4489ZM312.493 65.5664L312.343 66.0572L357.501 79.7329L357.65 79.242L357.8 78.7514L312.642 65.0757L312.493 65.5664Z" fill="#16DB65"/>
<path d="M197.203 4.70947H45.3086V33.4284H197.203V4.70947Z" fill="#333333"/>
<path d="M197.203 4.70947H45.3086V33.4284H197.203V4.70947Z" stroke="#4D4D4D"/>
<path d="M59.3622 14.2759C60.2609 14.2759 61.0477 14.4605 61.7228 14.8298C62.3978 15.199 62.9225 15.7165 63.2965 16.382C63.6751 17.0476 63.8643 17.8226 63.8643 18.7068C63.8643 19.6004 63.6841 20.3821 63.3238 21.0522C62.968 21.7223 62.4686 22.2443 61.8254 22.6181C61.1868 22.9873 60.4388 23.1719 59.5812 23.1719H56.2833V14.2759H59.3622ZM57.4601 15.3495V22.1052H59.4443C60.4615 22.1052 61.2507 21.809 61.8117 21.2163C62.3728 20.6192 62.6533 19.7827 62.6533 18.7068C62.6533 17.6448 62.3546 16.8196 61.757 16.2315C61.1594 15.6435 60.3178 15.3495 59.2322 15.3495H57.4601ZM71.4722 14.2759V15.3836H66.3201V18.1051H71.0822V19.165H66.3201V22.0711H71.4722V23.1719H65.1433V14.2759H71.4722ZM76.6814 20.0129H73.924V23.1719H72.7472V14.2759H76.5651C77.1809 14.2759 77.7191 14.3968 78.1798 14.6383C78.6451 14.8755 79.0054 15.2127 79.2609 15.6503C79.5209 16.0834 79.6509 16.5871 79.6509 17.1615C79.6509 17.7132 79.5299 18.2055 79.2882 18.6385C79.0464 19.0671 78.702 19.4043 78.2551 19.6505C77.8125 19.8921 77.288 20.0129 76.6814 20.0129ZM76.4624 15.3289H73.924V18.9462H76.4624C77.0827 18.9462 77.5685 18.7912 77.9198 18.4812C78.2709 18.1666 78.4467 17.7268 78.4467 17.1615C78.4467 16.5826 78.2709 16.1336 77.9198 15.8144C77.5731 15.4909 77.0873 15.3289 76.4624 15.3289ZM87.0506 23.1719H80.8722V14.2759H82.049V22.0711H87.0506V23.1719ZM87.6777 18.8299C87.6777 17.8909 87.8511 17.0704 88.1978 16.3683C88.5445 15.6663 89.0303 15.1216 89.6551 14.7341C90.2846 14.3421 91.019 14.146 91.8583 14.146C92.6885 14.146 93.4161 14.3421 94.0409 14.7341C94.6704 15.1216 95.1585 15.6663 95.5051 16.3683C95.8519 17.0704 96.0251 17.8909 96.0251 18.8299C96.0251 19.7188 95.8519 20.4983 95.5051 21.1685C95.1585 21.8341 94.6704 22.3537 94.0409 22.7275C93.4161 23.0967 92.6885 23.2813 91.8583 23.2813C91.019 23.2813 90.2846 23.0967 89.6551 22.7275C89.0303 22.3537 88.5445 21.8341 88.1978 21.1685C87.8511 20.4983 87.6777 19.7188 87.6777 18.8299ZM94.8278 18.8299C94.8278 17.6948 94.5678 16.8128 94.0478 16.1837C93.5278 15.5501 92.798 15.2332 91.8583 15.2332C90.9095 15.2332 90.1751 15.5501 89.6551 16.1837C89.1351 16.8128 88.8751 17.6948 88.8751 18.8299C88.8751 19.8876 89.1351 20.7126 89.6551 21.3052C90.1751 21.8933 90.9095 22.1873 91.8583 22.1873C92.798 22.1873 93.5278 21.8933 94.0478 21.3052C94.5678 20.7126 94.8278 19.8876 94.8278 18.8299ZM99.1625 20.1291L96.0357 14.2759H97.3767L99.7578 18.8094L102.159 14.2759H103.487L100.319 20.1291V23.1719H99.1625V20.1291ZM107.055 18.7C107.055 17.7884 107.221 16.9905 107.554 16.3068C107.892 15.623 108.362 15.0919 108.964 14.7135C109.57 14.3353 110.28 14.146 111.092 14.146C112.186 14.146 113.08 14.431 113.774 15.0007C114.467 15.5706 114.882 16.3478 115.019 17.3324H113.815C113.724 16.6897 113.448 16.1792 112.987 15.8008C112.531 15.4225 111.901 15.2332 111.099 15.2332C110.204 15.2332 109.507 15.5364 109.005 16.1426C108.503 16.749 108.252 17.6014 108.252 18.7C108.252 19.8077 108.503 20.6671 109.005 21.2779C109.507 21.8842 110.204 22.1873 111.099 22.1873C111.888 22.1873 112.51 21.9982 112.966 21.6198C113.427 21.2368 113.71 20.7218 113.815 20.0744H115.019C114.878 21.0774 114.458 21.8637 113.76 22.4335C113.067 22.9988 112.177 23.2813 111.092 23.2813C110.284 23.2813 109.577 23.0899 108.971 22.707C108.369 22.3241 107.899 21.7907 107.561 21.1069C107.224 20.4186 107.055 19.6163 107.055 18.7ZM116.169 18.8299C116.169 17.8909 116.342 17.0704 116.689 16.3683C117.035 15.6663 117.521 15.1216 118.146 14.7341C118.776 14.3421 119.51 14.146 120.349 14.146C121.179 14.146 121.907 14.3421 122.532 14.7341C123.161 15.1216 123.649 15.6663 123.996 16.3683C124.343 17.0704 124.516 17.8909 124.516 18.8299C124.516 19.7188 124.343 20.4983 123.996 21.1685C123.649 21.8341 123.161 22.3537 122.532 22.7275C121.907 23.0967 121.179 23.2813 120.349 23.2813C119.51 23.2813 118.776 23.0967 118.146 22.7275C117.521 22.3537 117.035 21.8341 116.689 21.1685C116.342 20.4983 116.169 19.7188 116.169 18.8299ZM123.319 18.8299C123.319 17.6948 123.059 16.8128 122.539 16.1837C122.019 15.5501 121.289 15.2332 120.349 15.2332C119.4 15.2332 118.666 15.5501 118.146 16.1837C117.626 16.8128 117.366 17.6948 117.366 18.8299C117.366 19.8876 117.626 20.7126 118.146 21.3052C118.666 21.8933 119.4 22.1873 120.349 22.1873C121.289 22.1873 122.019 21.8933 122.539 21.3052C123.059 20.7126 123.319 19.8876 123.319 18.8299ZM131.794 14.2759H132.95V23.1719H131.698L126.977 15.876V23.1719H125.8V14.2759H127.312L131.794 21.2847V14.2759ZM140.708 14.2759V15.3836H135.556V18.3923H140.318V19.4658H135.556V23.1719H134.38V14.2759H140.708ZM141.976 14.2759H143.153V23.1719H141.976V14.2759ZM147.642 14.2759C148.539 14.2759 149.326 14.4605 150.002 14.8298C150.677 15.199 151.201 15.7165 151.576 16.382C151.954 17.0476 152.144 17.8226 152.144 18.7068C152.144 19.6004 151.963 20.3821 151.603 21.0522C151.247 21.7223 150.748 22.2443 150.105 22.6181C149.466 22.9873 148.717 23.1719 147.861 23.1719H144.563V14.2759H147.642ZM145.74 15.3495V22.1052H147.724C148.741 22.1052 149.53 21.809 150.091 21.2163C150.652 20.6192 150.933 19.7827 150.933 18.7068C150.933 17.6448 150.633 16.8196 150.036 16.2315C149.438 15.6435 148.597 15.3495 147.512 15.3495H145.74ZM159.751 14.2759V15.3836H154.599V18.1051H159.361V19.165H154.599V22.0711H159.751V23.1719H153.422V14.2759H159.751ZM167.02 14.2759H168.176V23.1719H166.924L162.203 15.876V23.1719H161.026V14.2759H162.538L167.02 21.2847V14.2759ZM169.476 18.7C169.476 17.7884 169.642 16.9905 169.976 16.3068C170.312 15.623 170.783 15.0919 171.385 14.7135C171.991 14.3353 172.7 14.146 173.513 14.146C174.608 14.146 175.501 14.431 176.195 15.0007C176.888 15.5706 177.304 16.3478 177.44 17.3324H176.236C176.145 16.6897 175.868 16.1792 175.408 15.8008C174.951 15.4225 174.322 15.2332 173.52 15.2332C172.625 15.2332 171.927 15.5364 171.426 16.1426C170.924 16.749 170.674 17.6014 170.674 18.7C170.674 19.8077 170.924 20.6671 171.426 21.2779C171.927 21.8842 172.625 22.1873 173.52 22.1873C174.308 22.1873 174.931 21.9982 175.388 21.6198C175.848 21.2368 176.131 20.7218 176.236 20.0744H177.44C177.298 21.0774 176.879 21.8637 176.181 22.4335C175.488 22.9988 174.598 23.2813 173.513 23.2813C172.706 23.2813 171.998 23.0899 171.392 22.707C170.79 22.3241 170.319 21.7907 169.983 21.1069C169.645 20.4186 169.476 19.6163 169.476 18.7ZM185.049 14.2759V15.3836H179.897V18.1051H184.659V19.165H179.897V22.0711H185.049V23.1719H178.72V14.2759H185.049Z" fill="#B3B3B3"/>
</g>
<path d="M3.14204 199.676H8.84836V200.956H1.53278V200.652C1.53278 199.974 1.63678 199.397 1.84478 198.921C2.05826 198.439 2.33741 198.029 2.68226 197.69C3.03257 197.351 3.41573 197.055 3.83173 196.804C4.2532 196.552 4.67468 196.317 5.09615 196.098C5.5012 195.879 5.88436 195.655 6.24562 195.425C6.61236 195.196 6.90794 194.93 7.13236 194.629C7.35678 194.323 7.46899 193.954 7.46899 193.522C7.46899 192.854 7.2692 192.337 6.86962 191.971C6.47005 191.599 5.91447 191.413 5.20289 191.413C4.54604 191.413 4.0151 191.607 3.61004 191.995C3.21047 192.384 2.99699 192.906 2.96962 193.563H1.53278C1.5711 192.879 1.75173 192.283 2.07468 191.774C2.4031 191.26 2.83552 190.863 3.37194 190.584C3.90836 190.3 4.51868 190.157 5.20289 190.157C5.94183 190.157 6.58773 190.297 7.14057 190.576C7.69889 190.855 8.13131 191.249 8.43783 191.757C8.74983 192.261 8.90583 192.852 8.90583 193.53C8.90583 194.028 8.80731 194.468 8.61026 194.851C8.4132 195.228 8.15047 195.562 7.82205 195.852C7.4991 196.142 7.14057 196.404 6.74647 196.64C6.35783 196.875 5.9692 197.094 5.58057 197.296C5.15362 197.531 4.75404 197.764 4.38183 197.994C4.00962 198.223 3.70857 198.472 3.47868 198.74C3.25426 199.008 3.14204 199.32 3.14204 199.676ZM10.0961 195.745C10.0961 193.973 10.4492 192.594 11.1553 191.61C11.8668 190.62 12.8466 190.125 14.0946 190.125C15.3426 190.125 16.3142 190.62 17.0093 191.61C17.71 192.594 18.0603 193.973 18.0603 195.745C18.0603 197.425 17.71 198.735 17.0093 199.676C16.3142 200.617 15.3426 201.087 14.0946 201.087C12.8357 201.087 11.8532 200.617 11.147 199.676C10.4464 198.735 10.0961 197.425 10.0961 195.745ZM16.6234 195.745C16.6234 192.868 15.7805 191.429 14.0946 191.429C12.3868 191.429 11.5329 192.868 11.5329 195.745C11.5329 198.431 12.3868 199.774 14.0946 199.774C15.7805 199.774 16.6234 198.431 16.6234 195.745ZM19.3139 193.382C19.3139 192.398 19.5684 191.604 20.0775 191.003C20.5865 190.395 21.2543 190.092 22.0808 190.092C22.9019 190.092 23.5615 190.395 24.0596 191.003C24.5577 191.604 24.8067 192.398 24.8067 193.382C24.8067 194.383 24.5577 195.19 24.0596 195.803C23.5615 196.41 22.9019 196.714 22.0808 196.714C21.528 196.714 21.0436 196.577 20.6276 196.303C20.2171 196.024 19.8941 195.636 19.6587 195.138C19.4288 194.635 19.3139 194.05 19.3139 193.382ZM27.5326 190.281H28.8709L24.4783 200.956H23.14L27.5326 190.281ZM23.5752 193.382C23.5752 192.693 23.4465 192.157 23.1893 191.774C22.932 191.391 22.5625 191.2 22.0808 191.2C21.5992 191.2 21.2242 191.391 20.956 191.774C20.6878 192.157 20.5537 192.693 20.5537 193.382C20.5537 194.082 20.6878 194.629 20.956 195.023C21.2242 195.412 21.5992 195.606 22.0808 195.606C22.5625 195.606 22.932 195.412 23.1893 195.023C23.4465 194.629 23.5752 194.082 23.5752 193.382ZM27.1878 197.805C27.1878 196.815 27.4396 196.022 27.9432 195.425C28.4467 194.824 29.1118 194.523 29.9383 194.523C30.7594 194.523 31.4217 194.824 31.9253 195.425C32.4343 196.022 32.6888 196.815 32.6888 197.805C32.6888 198.8 32.4343 199.605 31.9253 200.217C31.4217 200.83 30.7594 201.136 29.9383 201.136C29.1118 201.136 28.4467 200.83 27.9432 200.217C27.4396 199.605 27.1878 198.8 27.1878 197.805ZM31.4491 197.805C31.4491 197.11 31.3149 196.574 31.0467 196.197C30.784 195.819 30.4145 195.63 29.9383 195.63C29.4566 195.63 29.0844 195.819 28.8217 196.197C28.5589 196.574 28.4276 197.11 28.4276 197.805C28.4276 198.5 28.5589 199.044 28.8217 199.438C29.0844 199.832 29.4566 200.029 29.9383 200.029C30.4145 200.029 30.784 199.832 31.0467 199.438C31.3149 199.044 31.4491 198.5 31.4491 197.805Z" fill="#4D4D4D"/>
<path d="M6.56036 150.432V153.091H5.1892V150.432H0.000146866V148.931L4.82794 142.416H6.56036V149.21H8.1532V150.432H6.56036ZM5.1892 149.21V144.024L1.4452 149.21H5.1892ZM9.20876 147.881C9.20876 146.108 9.56182 144.73 10.2679 143.745C10.9795 142.755 11.9593 142.26 13.2073 142.26C14.4553 142.26 15.4269 142.755 16.1221 143.745C16.8227 144.73 17.173 146.108 17.173 147.881C17.173 149.56 16.8227 150.87 16.1221 151.811C15.4269 152.752 14.4553 153.222 13.2073 153.222C11.9483 153.222 10.9658 152.752 10.2597 151.811C9.55908 150.87 9.20876 149.56 9.20876 147.881ZM15.7362 147.881C15.7362 145.003 14.8932 143.565 13.2073 143.565C11.4995 143.565 10.6456 145.003 10.6456 147.881C10.6456 150.566 11.4995 151.909 13.2073 151.909C14.8932 151.909 15.7362 150.566 15.7362 147.881ZM18.4265 145.517C18.4265 144.533 18.681 143.74 19.1901 143.138C19.6991 142.531 20.3669 142.227 21.1934 142.227C22.0145 142.227 22.6741 142.531 23.1722 143.138C23.6703 143.74 23.9193 144.533 23.9193 145.517C23.9193 146.518 23.6703 147.325 23.1722 147.938C22.6741 148.545 22.0145 148.849 21.1934 148.849C20.6406 148.849 20.1562 148.712 19.7402 148.439C19.3296 148.16 19.0067 147.771 18.7713 147.273C18.5414 146.77 18.4265 146.185 18.4265 145.517ZM26.6452 142.416H27.9835L23.5909 153.091H22.2526L26.6452 142.416ZM22.6877 145.517C22.6877 144.828 22.5591 144.292 22.3018 143.909C22.0446 143.526 21.6751 143.335 21.1934 143.335C20.7117 143.335 20.3368 143.526 20.0686 143.909C19.8004 144.292 19.6663 144.828 19.6663 145.517C19.6663 146.218 19.8004 146.765 20.0686 147.159C20.3368 147.547 20.7117 147.741 21.1934 147.741C21.6751 147.741 22.0446 147.547 22.3018 147.159C22.5591 146.765 22.6877 146.218 22.6877 145.517ZM26.3004 149.94C26.3004 148.95 26.5522 148.157 27.0557 147.561C27.5593 146.959 28.2244 146.658 29.0509 146.658C29.8719 146.658 30.5343 146.959 31.0378 147.561C31.5469 148.157 31.8014 148.95 31.8014 149.94C31.8014 150.936 31.5469 151.74 31.0378 152.353C30.5343 152.965 29.8719 153.272 29.0509 153.272C28.2244 153.272 27.5593 152.965 27.0557 152.353C26.5522 151.74 26.3004 150.936 26.3004 149.94ZM30.5616 149.94C30.5616 149.245 30.4275 148.709 30.1593 148.332C29.8966 147.954 29.5271 147.766 29.0509 147.766C28.5692 147.766 28.197 147.954 27.9343 148.332C27.6715 148.709 27.5402 149.245 27.5402 149.94C27.5402 150.635 27.6715 151.179 27.9343 151.573C28.197 151.967 28.5692 152.164 29.0509 152.164C29.5271 152.164 29.8966 151.967 30.1593 151.573C30.4275 151.179 30.5616 150.635 30.5616 149.94Z" fill="#4D4D4D"/>
<path d="M0.164356 98.4671C0.164356 96.7221 0.525619 95.3792 1.24815 94.4383C1.97615 93.4974 2.99426 93.027 4.30247 93.027C5.22204 93.027 5.99383 93.2759 6.61783 93.7737C7.24183 94.266 7.6332 94.947 7.79194 95.8168H6.33047C6.13341 94.772 5.45741 94.2496 4.30247 94.2496C3.41573 94.2496 2.7452 94.586 2.29089 95.2588C1.83657 95.9262 1.60941 96.9519 1.60941 98.3359C1.60941 98.4124 1.60941 98.4918 1.60941 98.5738C1.61489 98.6504 1.6231 98.727 1.63404 98.8036C1.87489 98.2073 2.26352 97.7341 2.79994 97.384C3.33636 97.0339 3.93847 96.8589 4.60626 96.8589C5.24668 96.8589 5.81594 97.012 6.31404 97.3184C6.81215 97.6247 7.20352 98.0432 7.48815 98.5738C7.77278 99.1044 7.9151 99.7116 7.9151 100.395C7.9151 101.09 7.76457 101.708 7.46352 102.25C7.16247 102.791 6.74647 103.218 6.21552 103.53C5.69004 103.836 5.0852 103.989 4.40099 103.989C3.53615 103.989 2.78626 103.765 2.15131 103.317C1.51636 102.863 1.02646 102.222 0.681619 101.396C0.336777 100.57 0.164356 99.594 0.164356 98.4671ZM1.97068 100.42C1.97068 100.863 2.07468 101.262 2.28268 101.618C2.49068 101.968 2.76983 102.247 3.12015 102.455C3.47594 102.657 3.87826 102.759 4.3271 102.759C4.97299 102.759 5.49299 102.545 5.8871 102.119C6.2812 101.692 6.47825 101.128 6.47825 100.428C6.47825 99.728 6.2812 99.1646 5.8871 98.7379C5.49299 98.3058 4.97026 98.0897 4.31889 98.0897C3.61826 98.0897 3.05173 98.3058 2.61931 98.7379C2.18689 99.1701 1.97068 99.7308 1.97068 100.42ZM9.28895 98.6477C9.28895 96.8753 9.642 95.4968 10.3481 94.5121C11.0597 93.522 12.0395 93.027 13.2875 93.027C14.5355 93.027 15.5071 93.522 16.2022 94.5121C16.9029 95.4968 17.2532 96.8753 17.2532 98.6477C17.2532 100.327 16.9029 101.637 16.2022 102.578C15.5071 103.519 14.5355 103.989 13.2875 103.989C12.0285 103.989 11.046 103.519 10.3399 102.578C9.63927 101.637 9.28895 100.327 9.28895 98.6477ZM15.8163 98.6477C15.8163 95.7703 14.9734 94.3316 13.2875 94.3316C11.5797 94.3316 10.7258 95.7703 10.7258 98.6477C10.7258 101.334 11.5797 102.677 13.2875 102.677C14.9734 102.677 15.8163 101.334 15.8163 98.6477ZM18.5067 96.2845C18.5067 95.2999 18.7612 94.5067 19.2702 93.9049C19.7793 93.2977 20.4471 92.9941 21.2736 92.9941C22.0947 92.9941 22.7542 93.2977 23.2523 93.9049C23.7505 94.5067 23.9995 95.2999 23.9995 96.2845C23.9995 97.2856 23.7505 98.0924 23.2523 98.7051C22.7542 99.3123 22.0947 99.6159 21.2736 99.6159C20.7208 99.6159 20.2363 99.4791 19.8203 99.2056C19.4098 98.9266 19.0869 98.5383 18.8515 98.0405C18.6216 97.5372 18.5067 96.9519 18.5067 96.2845ZM26.7254 93.1829H28.0637L23.6711 103.858H22.3328L26.7254 93.1829ZM22.7679 96.2845C22.7679 95.5953 22.6393 95.0592 22.382 94.6762C22.1248 94.2933 21.7553 94.1019 21.2736 94.1019C20.7919 94.1019 20.417 94.2933 20.1488 94.6762C19.8806 95.0592 19.7465 95.5953 19.7465 96.2845C19.7465 96.9847 19.8806 97.5317 20.1488 97.9256C20.417 98.314 20.7919 98.5082 21.2736 98.5082C21.7553 98.5082 22.1248 98.314 22.382 97.9256C22.6393 97.5317 22.7679 96.9847 22.7679 96.2845ZM26.3806 100.707C26.3806 99.7171 26.6323 98.9239 27.1359 98.3277C27.6395 97.7259 28.3046 97.4251 29.1311 97.4251C29.9521 97.4251 30.6145 97.7259 31.118 98.3277C31.6271 98.9239 31.8816 99.7171 31.8816 100.707C31.8816 101.703 31.6271 102.507 31.118 103.12C30.6145 103.732 29.9521 104.039 29.1311 104.039C28.3046 104.039 27.6395 103.732 27.1359 103.12C26.6323 102.507 26.3806 101.703 26.3806 100.707ZM30.6418 100.707C30.6418 100.012 30.5077 99.4764 30.2395 99.099C29.9768 98.7215 29.6073 98.5328 29.1311 98.5328C28.6494 98.5328 28.2772 98.7215 28.0145 99.099C27.7517 99.4764 27.6203 100.012 27.6203 100.707C27.6203 101.402 27.7517 101.946 28.0145 102.34C28.2772 102.734 28.6494 102.931 29.1311 102.931C29.6073 102.931 29.9768 102.734 30.2395 102.34C30.5077 101.946 30.6418 101.402 30.6418 100.707Z" fill="#4D4D4D"/>
<path d="M7.04205 50.4793C7.64415 50.6981 8.11215 51.0345 8.44604 51.4886C8.77994 51.9371 8.94689 52.4732 8.94689 53.0968C8.94689 53.7095 8.79089 54.2429 8.47889 54.6969C8.17236 55.1455 7.73994 55.4956 7.18162 55.7472C6.62878 55.9988 5.98015 56.1246 5.23573 56.1246C4.49678 56.1246 3.84815 56.0016 3.28983 55.7554C2.73699 55.5038 2.30457 55.1509 1.99257 54.6969C1.68604 54.2429 1.53278 53.7122 1.53278 53.105C1.53278 52.476 1.69973 51.9371 2.03362 51.4886C2.36752 51.0345 2.83826 50.6981 3.44583 50.4793C2.93678 50.2714 2.54541 49.9624 2.27173 49.5521C2.00352 49.1418 1.86941 48.6577 1.86941 48.0997C1.86941 47.5199 2.00899 47.0139 2.28815 46.5817C2.56731 46.1441 2.95868 45.805 3.46226 45.5643C3.97131 45.3181 4.56247 45.195 5.23573 45.195C5.91447 45.195 6.50836 45.3181 7.01741 45.5643C7.52647 45.805 7.92057 46.1441 8.19973 46.5817C8.48436 47.0194 8.62668 47.5281 8.62668 48.108C8.62668 48.6605 8.4871 49.1418 8.20794 49.5521C7.93426 49.9624 7.54562 50.2714 7.04205 50.4793ZM5.32605 49.9131C5.92815 49.9131 6.39615 49.7627 6.73004 49.4618C7.06394 49.161 7.23089 48.737 7.23089 48.19C7.23089 47.6211 7.05573 47.1807 6.70541 46.8689C6.36057 46.5571 5.87068 46.4012 5.23573 46.4012C4.61173 46.4012 4.12731 46.5571 3.78247 46.8689C3.43762 47.1807 3.2652 47.6211 3.2652 48.19C3.2652 48.737 3.42941 49.161 3.75783 49.4618C4.09173 49.7627 4.55699 49.9131 5.15362 49.9131H5.32605ZM5.32605 51.0947H5.15362C4.46394 51.0947 3.92752 51.2643 3.54436 51.6035C3.1612 51.9371 2.96962 52.4076 2.96962 53.0148C2.96962 53.6165 3.16668 54.0842 3.56078 54.4179C3.96036 54.7516 4.51868 54.9184 5.23573 54.9184C5.95278 54.9184 6.5111 54.7516 6.91068 54.4179C7.31026 54.0842 7.51005 53.6165 7.51005 53.0148C7.51005 52.4076 7.31847 51.9371 6.93531 51.6035C6.55215 51.2643 6.01573 51.0947 5.32605 51.0947ZM10.3366 50.7829C10.3366 49.0105 10.6897 47.632 11.3958 46.6474C12.1074 45.6573 13.0872 45.1622 14.3352 45.1622C15.5832 45.1622 16.5547 45.6573 17.2499 46.6474C17.9505 47.632 18.3009 49.0105 18.3009 50.7829C18.3009 52.4623 17.9505 53.7724 17.2499 54.7133C16.5547 55.6542 15.5832 56.1246 14.3352 56.1246C13.0762 56.1246 12.0937 55.6542 11.3876 54.7133C10.687 53.7724 10.3366 52.4623 10.3366 50.7829ZM16.864 50.7829C16.864 47.9056 16.0211 46.4669 14.3352 46.4669C12.6274 46.4669 11.7735 47.9056 11.7735 50.7829C11.7735 53.4688 12.6274 54.8118 14.3352 54.8118C16.0211 54.8118 16.864 53.4688 16.864 50.7829ZM19.5543 48.4198C19.5543 47.4351 19.8089 46.6419 20.3179 46.0402C20.827 45.433 21.4947 45.1294 22.3213 45.1294C23.1423 45.1294 23.8019 45.433 24.3 46.0402C24.7981 46.6419 25.0472 47.4351 25.0472 48.4198C25.0472 49.4208 24.7981 50.2277 24.3 50.8404C23.8019 51.4476 23.1423 51.7512 22.3213 51.7512C21.7684 51.7512 21.284 51.6144 20.868 51.3409C20.4575 51.0619 20.1345 50.6735 19.8992 50.1757C19.6693 49.6725 19.5543 49.0871 19.5543 48.4198ZM27.7731 45.3181H29.1114L24.7187 55.9934H23.3804L27.7731 45.3181ZM23.8156 48.4198C23.8156 47.7305 23.687 47.1944 23.4297 46.8115C23.1724 46.4286 22.803 46.2371 22.3213 46.2371C21.8396 46.2371 21.4646 46.4286 21.1964 46.8115C20.9282 47.1944 20.7941 47.7305 20.7941 48.4198C20.7941 49.12 20.9282 49.667 21.1964 50.0608C21.4646 50.4492 21.8396 50.6434 22.3213 50.6434C22.803 50.6434 23.1724 50.4492 23.4297 50.0608C23.687 49.667 23.8156 49.12 23.8156 48.4198ZM27.4282 52.8425C27.4282 51.8524 27.68 51.0592 28.1836 50.4629C28.6872 49.8612 29.3522 49.5603 30.1787 49.5603C30.9998 49.5603 31.6621 49.8612 32.1657 50.4629C32.6747 51.0592 32.9293 51.8524 32.9293 52.8425C32.9293 53.8381 32.6747 54.6422 32.1657 55.2549C31.6621 55.8675 30.9998 56.1739 30.1787 56.1739C29.3522 56.1739 28.6872 55.8675 28.1836 55.2549C27.68 54.6422 27.4282 53.8381 27.4282 52.8425ZM31.6895 52.8425C31.6895 52.1478 31.5554 51.6117 31.2872 51.2342C31.0244 50.8568 30.655 50.668 30.1787 50.668C29.6971 50.668 29.3249 50.8568 29.0621 51.2342C28.7994 51.6117 28.668 52.1478 28.668 52.8425C28.668 53.5372 28.7994 54.0815 29.0621 54.4754C29.3249 54.8692 29.6971 55.0661 30.1787 55.0661C30.655 55.0661 31.0244 54.8692 31.2872 54.4754C31.5554 54.0815 31.6895 53.5372 31.6895 52.8425Z" fill="#4D4D4D"/>
<path d="M2.5699 0.188724H3.95748V10.864H2.5699V3.15088H0V1.95289H1.27263C1.69958 1.95289 2.02253 1.87631 2.24148 1.72314C2.46042 1.5645 2.5699 1.27184 2.5699 0.845157V0.188724ZM5.50426 5.65353C5.50426 3.88116 5.85731 2.50265 6.56342 1.518C7.27499 0.527881 8.25478 0.0328221 9.50278 0.0328221C10.7508 0.0328221 11.7224 0.527881 12.4175 1.518C13.1182 2.50265 13.4685 3.88116 13.4685 5.65353C13.4685 7.3329 13.1182 8.64303 12.4175 9.58392C11.7224 10.5248 10.7508 10.9952 9.50278 10.9952C8.24384 10.9952 7.26131 10.5248 6.55521 9.58392C5.85457 8.64303 5.50426 7.3329 5.50426 5.65353ZM12.0316 5.65353C12.0316 2.77617 11.1887 1.33748 9.50278 1.33748C7.79499 1.33748 6.9411 2.77617 6.9411 5.65353C6.9411 8.33943 7.79499 9.68238 9.50278 9.68238C11.1887 9.68238 12.0316 8.33943 12.0316 5.65353ZM14.8534 5.65353C14.8534 3.88116 15.2064 2.50265 15.9125 1.518C16.6241 0.527881 17.6039 0.0328221 18.8519 0.0328221C20.0999 0.0328221 21.0715 0.527881 21.7666 1.518C22.4673 2.50265 22.8176 3.88116 22.8176 5.65353C22.8176 7.3329 22.4673 8.64303 21.7666 9.58392C21.0715 10.5248 20.0999 10.9952 18.8519 10.9952C17.593 10.9952 16.6104 10.5248 15.9043 9.58392C15.2037 8.64303 14.8534 7.3329 14.8534 5.65353ZM21.3807 5.65353C21.3807 2.77617 20.5378 1.33748 18.8519 1.33748C17.1441 1.33748 16.2902 2.77617 16.2902 5.65353C16.2902 8.33943 17.1441 9.68238 18.8519 9.68238C20.5378 9.68238 21.3807 8.33943 21.3807 5.65353ZM24.0711 3.29037C24.0711 2.30572 24.3256 1.51253 24.8346 0.9108C25.3437 0.3036 26.0115 0 26.838 0C27.6591 0 28.3186 0.3036 28.8167 0.9108C29.3149 1.51253 29.5639 2.30572 29.5639 3.29037C29.5639 4.29143 29.3149 5.0983 28.8167 5.71097C28.3186 6.31817 27.6591 6.62177 26.838 6.62177C26.2852 6.62177 25.8007 6.48501 25.3847 6.2115C24.9742 5.93251 24.6513 5.54412 24.4159 5.04633C24.186 4.54306 24.0711 3.95774 24.0711 3.29037ZM32.2898 0.188724H33.6281L29.2355 10.864H27.8972L32.2898 0.188724ZM28.3323 3.29037C28.3323 2.60112 28.2037 2.06503 27.9464 1.68211C27.6892 1.29919 27.3197 1.10773 26.838 1.10773C26.3563 1.10773 25.9814 1.29919 25.7132 1.68211C25.445 2.06503 25.3109 2.60112 25.3109 3.29037C25.3109 3.99057 25.445 4.53759 25.7132 4.93145C25.9814 5.31984 26.3563 5.51404 26.838 5.51404C27.3197 5.51404 27.6892 5.31984 27.9464 4.93145C28.2037 4.53759 28.3323 3.99057 28.3323 3.29037ZM31.945 7.71309C31.945 6.72297 32.1967 5.92978 32.7003 5.33352C33.2039 4.73179 33.869 4.43092 34.6955 4.43092C35.5165 4.43092 36.1789 4.73179 36.6824 5.33352C37.1915 5.92978 37.446 6.72297 37.446 7.71309C37.446 8.70868 37.1915 9.5128 36.6824 10.1255C36.1789 10.7381 35.5165 11.0445 34.6955 11.0445C33.869 11.0445 33.2039 10.7381 32.7003 10.1255C32.1967 9.5128 31.945 8.70868 31.945 7.71309ZM36.2062 7.71309C36.2062 7.01836 36.0721 6.48228 35.8039 6.10483C35.5412 5.72738 35.1717 5.53865 34.6955 5.53865C34.2138 5.53865 33.8416 5.72738 33.5788 6.10483C33.3161 6.48228 33.1847 7.01836 33.1847 7.71309C33.1847 8.40781 33.3161 8.9521 33.5788 9.34596C33.8416 9.73982 34.2138 9.93675 34.6955 9.93675C35.1717 9.93675 35.5412 9.73982 35.8039 9.34596C36.0721 8.9521 36.2062 8.40781 36.2062 7.71309Z" fill="#4D4D4D"/>
</g>
<defs>
<linearGradient id="paint0_linear_150_503" x1="263.136" y1="-58.4954" x2="263.136" y2="284.477" gradientUnits="userSpaceOnUse">
<stop stop-color="#16DB65"/>
<stop offset="1" stop-opacity="0"/>
</linearGradient>
<clipPath id="clip0_150_503">
<rect width="546" height="253" fill="white"/>
</clipPath>
</defs>
</svg>
