<svg width="128" height="128" viewBox="0 0 128 128" fill="none" xmlns="http://www.w3.org/2000/svg">
<g clip-path="url(#clip0_7626_309085)">
<path d="M114.286 0H13.7143C6.14009 0 0 6.14009 0 13.7143V114.286C0 121.86 6.14009 128 13.7143 128H114.286C121.86 128 128 121.86 128 114.286V13.7143C128 6.14009 121.86 0 114.286 0Z" fill="#15161A"/>
<path d="M83.6571 64C83.6571 51.125 73.2163 40.6859 60.3393 40.6858H42.0571C38.775 40.6858 36.1143 38.0251 36.1143 34.7429C36.1143 31.4608 38.775 28.8 42.0571 28.8H60.3393C79.7785 28.8002 95.5428 44.5587 95.5428 64C95.5428 83.4405 79.7832 99.2 60.3428 99.2H42.0571C38.775 99.2 36.1143 96.5393 36.1143 93.2572C36.1143 89.975 38.775 87.3143 42.0571 87.3143H60.3428C73.2189 87.3143 83.6571 76.8762 83.6571 64ZM42.5143 53.9429C42.5143 50.6608 45.175 48 48.4571 48C51.7393 48 54.4 50.6608 54.4 53.9429V64.2804L59.9741 69.8545L60.1848 70.0768C62.2923 72.4097 62.2223 76.0117 59.9741 78.2599C57.7259 80.5081 54.1239 80.5781 51.791 78.4706L51.5687 78.2599L44.2544 70.9456C43.1399 69.8311 42.5143 68.319 42.5143 66.7429V53.9429Z" fill="white"/>
</g>
<defs>
<clipPath id="clip0_7626_309085">
<rect width="128" height="128" fill="white"/>
</clipPath>
</defs>
</svg>
