<svg width="129" height="32" viewBox="0 0 129 32" fill="none" xmlns="http://www.w3.org/2000/svg">
<path d="M16 0H0L16 16V0Z" fill="white"/>
<path d="M32 0H16L32 16V0Z" fill="white"/>
<path d="M32 16H16L32 32V16Z" fill="white"/>
<path d="M16 16H0L16 32V16Z" fill="white"/>
<path d="M49.148 17.944C49.148 16.488 49.4187 15.2187 49.96 14.136C50.5107 13.044 51.276 12.1993 52.256 11.602C53.236 10.9953 54.3793 10.692 55.686 10.692C56.974 10.692 58.1033 10.9953 59.074 11.602C60.054 12.1993 60.8147 13.044 61.356 14.136C61.8973 15.2187 62.168 16.488 62.168 17.944C62.168 19.4093 61.8973 20.6927 61.356 21.794C60.8147 22.886 60.054 23.7353 59.074 24.342C58.1033 24.9487 56.974 25.252 55.686 25.252C54.3793 25.252 53.236 24.9487 52.256 24.342C51.276 23.7353 50.5107 22.886 49.96 21.794C49.4187 20.6927 49.148 19.4093 49.148 17.944ZM60.208 17.944C60.208 16.208 59.8113 14.864 59.018 13.912C58.2247 12.9507 57.114 12.47 55.686 12.47C54.2393 12.47 53.1147 12.9507 52.312 13.912C51.5093 14.864 51.108 16.208 51.108 17.944C51.108 19.6987 51.5093 21.0613 52.312 22.032C53.1147 22.9933 54.2393 23.474 55.686 23.474C57.114 23.474 58.2247 22.9933 59.018 22.032C59.8113 21.0613 60.208 19.6987 60.208 17.944ZM73.9805 16.474C73.9805 15.0833 73.6585 14.0753 73.0145 13.45C72.3798 12.8247 71.5212 12.512 70.4385 12.512C69.3838 12.512 68.4972 12.8667 67.7785 13.576C67.0692 14.276 66.7145 15.1767 66.7145 16.278V25H64.7965V11H66.7145V13.086C67.2092 12.3113 67.8438 11.7187 68.6185 11.308C69.3932 10.8973 70.1725 10.692 70.9565 10.692C72.0112 10.692 72.9352 10.9487 73.7285 11.462C74.5312 11.9753 75.1145 12.7267 75.4785 13.716C75.9265 12.7547 76.5845 12.0127 77.4525 11.49C78.3298 10.958 79.2212 10.692 80.1265 10.692C81.5452 10.692 82.7165 11.154 83.6405 12.078C84.5645 12.9927 85.0265 14.3227 85.0265 16.068V25H83.1505V16.474C83.1505 15.0833 82.8285 14.0753 82.1845 13.45C81.5405 12.8247 80.6772 12.512 79.5945 12.512C78.5492 12.512 77.6625 12.8667 76.9345 13.576C76.2158 14.276 75.8565 15.1767 75.8565 16.278V25H73.9805V16.474ZM87.648 17.944C87.648 16.488 87.9187 15.2187 88.46 14.136C89.0107 13.044 89.776 12.1993 90.756 11.602C91.736 10.9953 92.8793 10.692 94.186 10.692C95.474 10.692 96.6033 10.9953 97.574 11.602C98.554 12.1993 99.3147 13.044 99.856 14.136C100.397 15.2187 100.668 16.488 100.668 17.944C100.668 19.4093 100.397 20.6927 99.856 21.794C99.3147 22.886 98.554 23.7353 97.574 24.342C96.6033 24.9487 95.474 25.252 94.186 25.252C92.8793 25.252 91.736 24.9487 90.756 24.342C89.776 23.7353 89.0107 22.886 88.46 21.794C87.9187 20.6927 87.648 19.4093 87.648 17.944ZM98.708 17.944C98.708 16.208 98.3113 14.864 97.518 13.912C96.7247 12.9507 95.614 12.47 94.186 12.47C92.7393 12.47 91.6147 12.9507 90.812 13.912C90.0093 14.864 89.608 16.208 89.608 17.944C89.608 19.6987 90.0093 21.0613 90.812 22.032C91.6147 22.9933 92.7393 23.474 94.186 23.474C95.614 23.474 96.7247 22.9933 97.518 22.032C98.3113 21.0613 98.708 19.6987 98.708 17.944ZM111.949 11H114.357L108.225 17.888L114.525 25H112.173L106.867 19.12L105.229 21.024V25H103.311V5.4H105.229V18.658L111.949 11ZM126.775 15.928V25H124.857V22.704C124.353 23.516 123.681 24.1507 122.841 24.608C122.001 25.0653 121.039 25.294 119.957 25.294C118.557 25.294 117.413 24.916 116.527 24.16C115.649 23.3947 115.211 22.41 115.211 21.206C115.211 20.0953 115.589 19.1993 116.345 18.518C117.101 17.8367 118.151 17.44 119.495 17.328L124.157 16.95C124.623 16.9127 124.857 16.6747 124.857 16.236V15.816C124.857 14.7613 124.521 13.9213 123.849 13.296C123.177 12.6707 122.267 12.358 121.119 12.358C118.972 12.358 117.787 13.4313 117.562 15.578H115.575C115.64 14.6073 115.92 13.758 116.415 13.03C116.909 12.2927 117.567 11.7187 118.389 11.308C119.21 10.8973 120.143 10.692 121.189 10.692C122.281 10.692 123.247 10.916 124.087 11.364C124.927 11.812 125.585 12.4327 126.061 13.226C126.537 14.01 126.775 14.9107 126.775 15.928ZM117.143 21.108C117.143 21.8733 117.427 22.48 117.997 22.928C118.566 23.3667 119.345 23.586 120.335 23.586C121.697 23.586 122.789 23.166 123.611 22.326C124.441 21.486 124.857 20.3753 124.857 18.994V18.532L119.845 18.882C118.043 19.0033 117.143 19.7453 117.143 21.108Z" fill="white"/>
</svg>
