<svg width="406" height="288" viewBox="0 0 406 288" fill="none" xmlns="http://www.w3.org/2000/svg">
<g clip-path="url(#clip0_243_667)">
<g clip-path="url(#clip1_243_667)">
<path d="M377.743 -2.47032e-06L406 0L406 144L377.743 144L377.743 -2.47032e-06Z" fill="#666666"/>
<path d="M348.687 -2.28755e-06L374.853 0L374.853 144L348.686 144L348.687 -2.28755e-06Z" fill="#666666"/>
<path d="M319.626 -2.10478e-06L343.702 0L343.702 144L319.626 144L319.626 -2.10478e-06Z" fill="#666666"/>
<path d="M290.57 -1.922e-06L312.555 0L312.555 144L290.57 144L290.57 -1.922e-06Z" fill="#666666"/>
<path d="M261.514 -1.73923e-06L281.408 0L281.408 144L261.514 144L261.514 -1.73923e-06Z" fill="#666666"/>
<path d="M232.454 -1.55646e-06L250.258 0L250.258 144L232.454 144L232.454 -1.55646e-06Z" fill="#666666"/>
<path d="M203.398 -1.37368e-06L219.111 0L219.111 144L203.398 144L203.398 -1.37368e-06Z" fill="#666666"/>
<path d="M174.345 -1.19057e-06L187.964 0L187.964 144L174.345 144L174.345 -1.19057e-06Z" fill="#666666"/>
<path d="M145.289 -1.0078e-06L156.817 0L156.817 144L145.289 144L145.289 -1.0078e-06Z" fill="#666666"/>
<path d="M116.229 -8.25024e-07L125.666 0L125.666 144L116.229 144L116.229 -8.25024e-07Z" fill="#666666"/>
<path d="M87.1726 -6.42248e-07L94.519 0L94.519 144L87.1726 144L87.1726 -6.42248e-07Z" fill="#666666"/>
<path d="M58.1163 -4.59476e-07L63.3721 0L63.3721 144L58.1163 144L58.1163 -4.59476e-07Z" fill="#666666"/>
<path d="M29.0563 -2.76702e-07L32.2214 0L32.2214 144L29.0563 144L29.0563 -2.76702e-07Z" fill="#666666"/>
<path d="M2.21729e-05 -9.39306e-08L1.07446 0L1.07445 144L9.58404e-06 144L2.21729e-05 -9.39306e-08Z" fill="#666666"/>
</g>
<g clip-path="url(#clip2_243_667)">
<path d="M28.2572 288L0 288L-2.51778e-05 144L28.2572 144L28.2572 288Z" fill="#666666"/>
<path d="M57.3135 288L31.147 288L31.1469 144L57.3135 144L57.3135 288Z" fill="#666666"/>
<path d="M86.3736 288L62.2977 288L62.2977 144L86.3735 144L86.3736 288Z" fill="#666666"/>
<path d="M115.43 288L93.4447 288L93.4447 144L115.43 144L115.43 288Z" fill="#666666"/>
<path d="M144.486 288L124.592 288L124.592 144L144.486 144L144.486 288Z" fill="#666666"/>
<path d="M173.546 288L155.742 288L155.742 144L173.546 144L173.546 288Z" fill="#666666"/>
<path d="M202.602 288L186.889 288L186.889 144L202.602 144L202.602 288Z" fill="#666666"/>
<path d="M231.655 288L218.036 288L218.036 144L231.655 144L231.655 288Z" fill="#666666"/>
<path d="M260.711 288L249.183 288L249.183 144L260.711 144L260.711 288Z" fill="#666666"/>
<path d="M289.771 288L280.334 288L280.334 144L289.771 144L289.771 288Z" fill="#666666"/>
<path d="M318.827 288L311.481 288L311.481 144L318.827 144L318.827 288Z" fill="#666666"/>
<path d="M347.884 288L342.628 288L342.628 144L347.884 144L347.884 288Z" fill="#666666"/>
<path d="M376.944 288L373.779 288L373.779 144L376.944 144L376.944 288Z" fill="#666666"/>
<path d="M406 288L404.926 288L404.926 144L406 144L406 288Z" fill="#666666"/>
</g>
</g>
<defs>
<clipPath id="clip0_243_667">
<rect width="406" height="288" fill="white"/>
</clipPath>
<clipPath id="clip1_243_667">
<rect width="406" height="144" fill="white" transform="matrix(-1 -8.74228e-08 -8.74228e-08 1 406 0)"/>
</clipPath>
<clipPath id="clip2_243_667">
<rect width="406" height="144" fill="white" transform="matrix(1 -1.74846e-07 -1.74846e-07 -1 0 288)"/>
</clipPath>
</defs>
</svg>
